<svg xmlns="http://www.w3.org/2000/svg" viewBox="0 0 120 132" fill="none" preserveAspectRatio="xMidYMid meet" role="img" aria-label="VACTI">
  <defs>
    <linearGradient id="vacti-shield" x1="60" y1="8" x2="60" y2="126" gradientUnits="userSpaceOnUse">
      <stop stop-color="#1F5BD6" />
      <stop offset="1" stop-color="#0E347E" />
    </linearGradient>
    <linearGradient id="vacti-v" x1="34" y1="44" x2="60" y2="104" gradientUnits="userSpaceOnUse">
      <stop stop-color="#8FD4FF" />
      <stop offset="1" stop-color="#37B6FF" />
    </linearGradient>
    <clipPath id="vacti-clip"><path d="M60 8 L108 26 V64 C108 95 88 116 60 126 C32 116 12 95 12 64 V26 Z" /></clipPath>
  </defs>
  <path d="M60 8 L108 26 V64 C108 95 88 116 60 126 C32 116 12 95 12 64 V26 Z" fill="url(#vacti-shield)" />
  <g clip-path="url(#vacti-clip)" stroke="#FFFFFF" stroke-width="2.4" fill="none">
    <circle cx="60" cy="60" r="14" opacity="0.32" />
    <circle cx="60" cy="60" r="27" opacity="0.22" />
    <circle cx="60" cy="60" r="40" opacity="0.14" />
  </g>
  <path d="M37 48 L60 98 L83 48" stroke="url(#vacti-v)" stroke-width="13" stroke-linecap="round" stroke-linejoin="round" fill="none" />
  <circle cx="60" cy="60" r="4.5" fill="#FFFFFF" />
  <circle cx="86" cy="44" r="5" fill="#37B6FF" stroke="#0A1B33" stroke-width="2" />
</svg>
